HIERARCHY
ROOT joint_0
{
	OFFSET 0.000000 0.000000 0.000000
	CHANNELS 6 Xposition Yposition Zposition Zrotation Yrotation Xrotation 
	JOINT joint_1
	{
		OFFSET 7.566162 2.250183 114.799927
		CHANNELS 3 Zrotation Yrotation Xrotation
		JOINT joint_2
		{
			OFFSET -5.201660 -0.414001 104.936035
			CHANNELS 3 Zrotation Yrotation Xrotation
			JOINT joint_3
			{
				OFFSET -6.923584 -0.419739 104.718018
				CHANNELS 3 Zrotation Yrotation Xrotation
				JOINT joint_4
				{
					OFFSET 3.108887 2.881104 149.449951
					CHANNELS 3 Zrotation Yrotation Xrotation
					JOINT joint_5
					{
						OFFSET 19.988770 5.920349 90.786987
						CHANNELS 3 Zrotation Yrotation Xrotation
						End Site
						{
							OFFSET 0.000000 0.000000 0.000000
						}
					}
				}
				JOINT joint_6
				{
					OFFSET 9.283936 -30.015930 84.410034
					CHANNELS 3 Zrotation Yrotation Xrotation
					JOINT joint_7
					{
						OFFSET 47.243164 -155.716736 -23.241089
						CHANNELS 3 Zrotation Yrotation Xrotation
						JOINT joint_8
						{
							OFFSET 31.323730 -15.356873 -268.798950
							CHANNELS 3 Zrotation Yrotation Xrotation
							JOINT joint_9
							{
								OFFSET 28.122314 -2.114624 -262.450012
								CHANNELS 3 Zrotation Yrotation Xrotation
								End Site
								{
									OFFSET 0.000000 0.000000 0.000000
								}
							}
						}
					}
				}
				JOINT joint_10
				{
					OFFSET -5.580566 33.311218 83.498047
					CHANNELS 3 Zrotation Yrotation Xrotation
					JOINT joint_11
					{
						OFFSET -22.773438 160.515381 -27.138062
						CHANNELS 3 Zrotation Yrotation Xrotation
						JOINT joint_12
						{
							OFFSET 27.004395 30.848877 -267.937988
							CHANNELS 3 Zrotation Yrotation Xrotation
							JOINT joint_13
							{
								OFFSET 32.625000 14.824585 -261.518005
								CHANNELS 3 Zrotation Yrotation Xrotation
								End Site
								{
									OFFSET 0.000000 0.000000 0.000000
								}
							}
						}
					}
				}
			}
		}
	}
	JOINT joint_14
	{
		OFFSET 20.623535 -83.447632 -106.174011
		CHANNELS 3 Zrotation Yrotation Xrotation
		JOINT joint_15
		{
			OFFSET 0.661865 -23.563843 -459.915039
			CHANNELS 3 Zrotation Yrotation Xrotation
			JOINT joint_16
			{
				OFFSET -23.461670 -28.727966 -444.760971
				CHANNELS 3 Zrotation Yrotation Xrotation
				JOINT joint_17
				{
					OFFSET 178.992920 54.047363 -80.113001
					CHANNELS 3 Zrotation Yrotation Xrotation
					End Site
					{
						OFFSET 0.000000 0.000000 0.000000
					}
				}
			}
		}
	}
	JOINT joint_18
	{
		OFFSET -19.571533 84.686279 -105.380005
		CHANNELS 3 Zrotation Yrotation Xrotation
		JOINT joint_19
		{
			OFFSET -22.949951 3.639404 -459.933044
			CHANNELS 3 Zrotation Yrotation Xrotation
			JOINT joint_20
			{
				OFFSET -33.690674 4.092651 -445.010971
				CHANNELS 3 Zrotation Yrotation Xrotation
				JOINT joint_21
				{
					OFFSET 187.419678 18.953857 -76.759001
					CHANNELS 3 Zrotation Yrotation Xrotation
					End Site
					{
						OFFSET 0.000000 0.000000 0.000000
					}
				}
			}
		}
	}
}
MOTION
Frames: 16
Frame Time: 0.016667
-2515.981201 904.445312 1068.697998 -5.364947 5.264481 -0.685879 -4.452220 11.502567 2.058625 -0.223284 -1.810075 -0.504494 0.614357 2.100032 0.305619 0.877970 -6.255933 -1.140055 0.000000 0.000000 0.000000 10.287100 -5.491545 -5.019400 -6.487448 -3.045545 -4.467502 1.591778 -52.816917 34.949422 0.000000 0.000000 0.000000 2.070687 -2.332097 -0.316687 10.473701 -0.470746 6.766970 -1.373249 -69.832649 -23.791213 0.000000 0.000000 0.000000 0.698427 -11.521713 -5.747685 -4.017279 38.268888 -5.130365 -7.379442 -12.240764 1.265171 0.000000 0.000000 0.000000 0.160960 -14.534122 17.810806 -0.749686 66.396953 -13.380982 -6.597277 -1.966084 -0.114098 0.000000 0.000000 0.000000 
-2503.187988 909.191895 1072.182007 -5.094600 5.200437 -0.765573 -4.300013 11.251611 1.956439 -0.295521 -1.805431 -0.523310 0.484863 2.076797 0.303043 0.836417 -6.564542 -0.910921 0.000000 0.000000 0.000000 10.105358 -5.052965 -4.972295 -6.126901 -2.558871 -3.983194 1.624241 -52.402853 33.334971 0.000000 0.000000 0.000000 2.327439 -2.184155 -0.739733 9.406640 -0.616379 5.798749 -1.786403 -68.536767 -20.893561 0.000000 0.000000 0.000000 0.018665 -9.918546 -5.653129 -4.137796 36.352472 -5.556120 -7.290561 -11.131053 0.932919 0.000000 0.000000 0.000000 0.943372 -17.327112 18.362217 -0.711629 66.716981 -12.945164 -4.943802 -4.377915 0.540172 0.000000 0.000000 0.000000 
-2490.222412 914.501221 1075.423950 -4.808153 5.242260 -0.903561 -4.012056 10.795920 1.880909 -0.400037 -1.777519 -0.542163 0.297351 2.021438 0.304402 0.778430 -6.773116 -0.651680 0.000000 0.000000 0.000000 9.768711 -4.515969 -4.739515 -5.665444 -2.101492 -3.594611 1.678544 -51.598148 31.272681 0.000000 0.000000 0.000000 2.535249 -2.115662 -1.146586 8.543074 -0.739002 5.301662 -2.086873 -67.070204 -18.364664 0.000000 0.000000 0.000000 -0.694579 -8.376952 -5.547234 -4.294712 34.305628 -5.943329 -7.202614 -9.920730 0.567688 0.000000 0.000000 0.000000 1.565051 -20.127152 18.773905 -0.720522 66.091510 -12.476404 -3.454141 -6.385661 0.796328 0.000000 0.000000 0.000000 
-2477.432373 920.319214 1077.697998 -4.544876 5.272826 -0.991573 -3.700076 10.405832 1.640867 -0.515785 -1.750252 -0.510000 0.083856 1.975941 0.278779 0.735400 -6.968037 -0.435648 0.000000 0.000000 0.000000 9.370570 -3.992002 -4.490795 -5.191067 -1.656230 -3.164290 1.728665 -50.792049 29.059061 0.000000 0.000000 0.000000 2.624341 -2.017796 -1.429165 7.931698 -0.762212 5.023141 -2.301394 -66.022351 -16.561898 0.000000 0.000000 0.000000 -1.328728 -7.045947 -5.602112 -4.443932 32.676044 -6.229416 -7.149941 -8.774858 0.218822 0.000000 0.000000 0.000000 1.923850 -22.727700 18.866141 -0.741151 64.757509 -11.918616 -2.358501 -8.176153 0.849436 0.000000 0.000000 0.000000 
-2465.025879 926.681213 1078.852051 -4.263797 5.255902 -1.010259 -3.398612 10.187456 1.201302 -0.647903 -1.728661 -0.418900 -0.159587 1.952084 0.205828 0.722852 -7.185813 -0.312097 0.000000 0.000000 0.000000 8.938372 -3.508744 -4.264686 -4.687508 -1.192545 -2.555565 1.768937 -50.093765 26.560978 0.000000 0.000000 0.000000 2.546916 -1.854439 -1.523124 7.571764 -0.662018 4.900274 -2.447162 -65.545550 -15.559252 0.000000 0.000000 0.000000 -1.899734 -5.923002 -5.863857 -4.611470 31.556300 -6.378124 -7.153143 -7.796805 -0.090182 0.000000 0.000000 0.000000 2.050066 -25.037987 18.570592 -0.713586 62.614098 -11.049297 -1.536466 -9.668067 0.877886 0.000000 0.000000 0.000000 
-2452.793701 933.549866 1079.036987 -4.028091 5.220851 -1.006909 -3.073775 10.055732 0.648829 -0.782024 -1.707789 -0.293137 -0.409235 1.929291 0.098970 0.725329 -7.388818 -0.242651 0.000000 0.000000 0.000000 8.447778 -3.045201 -4.005046 -4.179114 -0.753649 -1.912719 1.795449 -49.355640 23.909406 0.000000 0.000000 0.000000 2.347109 -1.635692 -1.468868 7.421294 -0.451836 4.969892 -2.536860 -65.465668 -15.249069 0.000000 0.000000 0.000000 -2.381746 -5.019324 -6.241691 -4.783658 30.892194 -6.461850 -7.203858 -6.940797 -0.370731 0.000000 0.000000 0.000000 1.960062 -27.017333 18.043610 -0.650871 59.605627 -9.968169 -1.121658 -10.628008 0.840638 0.000000 0.000000 0.000000 
-2440.458740 940.761963 1077.972046 -3.993310 5.178630 -0.978518 -2.724423 9.933062 0.017941 -0.888389 -1.676214 -0.150739 -0.620337 1.908369 -0.020181 0.725331 -7.547307 -0.165467 0.000000 0.000000 0.000000 7.919828 -2.614976 -3.765264 -3.770068 -0.411445 -1.520514 1.818628 -48.607621 21.754978 0.000000 0.000000 0.000000 2.091315 -1.323377 -1.330013 7.467851 -0.112137 5.156066 -2.593611 -65.883637 -15.725887 0.000000 0.000000 0.000000 -2.626188 -4.546825 -6.688066 -4.872678 31.047614 -6.613264 -7.298144 -6.197823 -0.614712 0.000000 0.000000 0.000000 1.572615 -28.640983 17.479979 -0.716416 56.057745 -9.054645 -1.629452 -11.204621 0.558753 0.000000 0.000000 0.000000 
-2427.753662 948.237061 1075.406006 -4.047597 5.224278 -0.860290 -2.344227 9.653404 -0.777686 -1.011450 -1.579197 0.044933 -0.850909 1.896815 -0.148571 0.711619 -7.653707 -0.031447 0.000000 0.000000 0.000000 7.281624 -2.228652 -3.553037 -3.464241 -0.228420 -1.526647 1.862050 -47.608179 20.319925 0.000000 0.000000 0.000000 1.748427 -0.899733 -1.108689 7.740158 0.379351 5.473391 -2.628453 -66.879560 -17.306788 0.000000 0.000000 0.000000 -2.659018 -4.581053 -7.218070 -4.882231 32.047487 -6.884474 -7.430161 -5.440950 -0.857006 0.000000 0.000000 0.000000 0.552971 -29.976273 16.898541 -1.296660 51.310261 -8.517958 -3.656720 -11.844661 -0.177172 0.000000 0.000000 0.000000 
-2414.944824 956.054688 1071.588989 -4.384457 5.214926 -0.742114 -1.901407 9.474396 -1.628490 -1.080360 -1.517535 0.245796 -1.017156 1.881184 -0.289749 0.695624 -7.714710 0.110797 0.000000 0.000000 0.000000 6.598769 -1.860722 -3.370427 -3.218648 -0.137145 -1.800711 1.932032 -46.584037 19.340100 0.000000 0.000000 0.000000 1.351341 -0.400396 -0.821069 8.208438 0.977385 5.905746 -2.614387 -68.312835 -19.680802 0.000000 0.000000 0.000000 -2.459772 -5.003205 -7.779682 -4.744222 33.830298 -7.259970 -7.568838 -4.702613 -1.072132 0.000000 0.000000 0.000000 -0.796696 -30.716730 16.392147 -2.302735 45.502993 -7.966234 -6.185688 -11.785771 -1.108502 0.000000 0.000000 0.000000 
-2402.563477 964.292847 1066.989990 -5.383015 4.943458 -0.760687 -1.394817 9.655603 -2.285701 -0.988838 -1.586017 0.352991 -0.988897 1.849962 -0.428703 0.693806 -7.722518 0.177229 0.000000 0.000000 0.000000 6.116970 -1.454502 -3.291866 -3.049496 0.008524 -2.208449 2.025615 -46.319950 18.729506 0.000000 0.000000 0.000000 1.071527 0.140840 -0.562442 8.775948 1.608307 6.350494 -2.521322 -70.000975 -22.004760 0.000000 0.000000 0.000000 -1.871741 -5.840684 -8.318408 -4.323582 36.629430 -7.702615 -7.737923 -4.207319 -1.184507 0.000000 0.000000 0.000000 -1.600343 -30.923166 16.128870 -3.008279 41.228854 -7.144973 -7.722899 -10.569852 -1.787119 0.000000 0.000000 0.000000 
-2390.623047 973.360291 1061.012939 -6.973843 4.514690 -0.829072 -0.881577 9.857388 -2.849149 -0.809258 -1.583543 0.434153 -0.860265 1.808243 -0.553992 0.718223 -7.699570 0.129083 0.000000 0.000000 0.000000 6.032501 -0.957244 -3.394854 -3.023586 0.281310 -2.833536 2.130325 -47.408866 18.710175 0.000000 0.000000 0.000000 1.023527 0.776095 -0.326357 9.441607 2.281401 6.720340 -2.340882 -72.211490 -24.081500 0.000000 0.000000 0.000000 -0.767375 -7.403689 -9.101032 -3.563302 40.881073 -7.971711 -8.037496 -4.012551 -1.178744 0.000000 0.000000 0.000000 -1.531990 -31.281765 16.006644 -2.956978 40.623368 -6.188662 -8.203255 -8.876451 -2.130004 0.000000 0.000000 0.000000 
-2379.108154 982.847290 1054.254028 -8.800289 4.066486 -0.782246 -0.372066 9.924372 -3.530566 -0.636705 -1.474289 0.583174 -0.748485 1.773676 -0.667410 0.757715 -7.638934 0.007323 0.000000 0.000000 0.000000 6.146803 -0.415319 -3.592016 -3.060565 0.586060 -3.633041 2.246163 -49.282064 19.026423 0.000000 0.000000 0.000000 1.086793 1.453681 -0.140033 10.215628 2.985095 7.117685 -2.068437 -74.734173 -26.109458 0.000000 0.000000 0.000000 0.693944 -9.490540 -10.123327 -2.533607 45.956289 -8.012971 -8.497663 -3.736396 -1.176752 0.000000 0.000000 0.000000 -1.049217 -31.822629 15.812589 -2.465363 42.288570 -5.282736 -8.355169 -7.270790 -2.347732 0.000000 0.000000 0.000000 
-2368.504639 991.605713 1048.961060 -10.574167 3.612550 -0.606696 0.154868 10.043014 -4.225605 -0.483519 -1.423082 0.734021 -0.657874 1.769886 -0.773894 0.794579 -7.498496 -0.155831 0.000000 0.000000 0.000000 6.111151 0.073985 -3.751082 -2.959898 0.848860 -4.236369 2.402349 -51.015388 18.912976 0.000000 0.000000 0.000000 1.064668 2.008603 -0.129368 11.021532 3.647291 7.737206 -1.705155 -76.734911 -27.836160 0.000000 0.000000 0.000000 2.129008 -11.559078 -10.938495 -1.457977 50.688063 -8.095966 -9.130299 -3.269484 -1.269905 0.000000 0.000000 0.000000 -0.509804 -32.126057 15.475317 -1.845895 44.208551 -4.590293 -8.456119 -6.007223 -2.515424 0.000000 0.000000 0.000000 
-2358.893311 999.707947 1045.598999 -12.348417 3.164508 -0.232849 0.750913 10.228615 -4.918753 -0.322928 -1.468070 0.846664 -0.562394 1.837891 -0.890576 0.828751 -7.237072 -0.383251 0.000000 0.000000 0.000000 5.768766 0.455040 -3.838661 -2.636960 1.027187 -4.510173 2.639575 -52.429765 18.036213 0.000000 0.000000 0.000000 0.850036 2.353413 -0.416790 11.951798 4.275000 8.861770 -1.203491 -78.031334 -29.303705 0.000000 0.000000 0.000000 3.451508 -13.653278 -11.411636 -0.425551 55.114026 -8.506812 -10.141550 -2.600163 -1.545387 0.000000 0.000000 0.000000 0.056513 -32.121788 14.872225 -1.112851 46.175205 -4.236819 -8.591218 -5.390371 -2.630486 0.000000 0.000000 0.000000 
-2350.192139 1007.079712 1043.703003 -14.091759 2.746746 0.253445 1.371641 10.441303 -5.607509 -0.174837 -1.558751 0.956431 -0.487597 1.938199 -1.005691 0.862984 -6.901585 -0.656172 0.000000 0.000000 0.000000 5.276091 0.774247 -3.914573 -2.181185 1.186880 -4.556276 2.935831 -53.717325 16.762261 0.000000 0.000000 0.000000 0.542043 2.574167 -0.875851 12.933300 4.881719 10.240778 -0.625068 -78.826233 -30.486548 0.000000 0.000000 0.000000 4.715920 -15.782625 -11.629256 0.621024 59.325299 -8.977087 -11.380852 -1.941698 -1.888143 0.000000 0.000000 0.000000 0.706778 -31.907791 14.109861 -0.217055 48.369950 -4.089109 -8.623594 -5.051150 -2.682930 0.000000 0.000000 0.000000 
-2342.636475 1012.354614 1044.135986 -15.373367 2.440110 0.543778 1.854643 10.625559 -6.072685 -0.113996 -1.647266 1.039861 -0.493660 2.003134 -1.077484 0.883781 -6.595995 -0.879444 0.000000 0.000000 0.000000 4.778605 1.095501 -4.005101 -1.663174 1.450042 -4.335364 3.239432 -54.549654 15.419340 0.000000 0.000000 0.000000 0.260553 2.778755 -1.249861 13.614248 5.414979 11.253862 -0.167775 -78.831315 -31.021303 0.000000 0.000000 0.000000 5.591996 -17.563335 -11.401907 1.441135 62.570295 -9.233002 -12.271109 -1.934791 -2.015980 0.000000 0.000000 0.000000 1.112063 -31.421723 13.557672 0.497544 49.550768 -3.970116 -8.495035 -4.627402 -2.683427 0.000000 0.000000 0.000000 
